<svg data-cached="true" xmlns="http://www.w3.org/2000/svg" width="232" height="232" viewBox="0 0 232 232" preserveAspectRatio="xMidYMid meet"><svg id="__background" x="0" y="0" width="232" height="232" preserveAspectRatio="xMidYMid meet"><rect x="0" y="0" width="232" height="232" fill="#ffffff" stroke="none" stroke-width="0px"/></svg><g id="__padding" transform="translate(26 26)"><svg id="data" x="0" y="0" width="180" height="180" viewBox="0 0 228 228" preserveAspectRatio="xMinYMid meet"><path d="M0 0L36 0L36 24L24 24L24 12L0 12ZM84 0L96 0L96 12L84 12ZM120 0L156 0L156 12L120 12ZM180 0L192 0L192 24L180 24ZM216 0L228 0L228 36L216 36L216 24L204 24L204 12L216 12ZM48 12L60 12L60 24L48 24ZM96 12L108 12L108 36L120 36L120 24L132 24L132 48L120 48L120 60L132 60L132 48L144 48L144 24L180 24L180 36L192 36L192 24L204 24L204 60L216 60L216 72L204 72L204 96L192 96L192 60L180 60L180 72L168 72L168 108L180 108L180 132L168 132L168 156L180 156L180 168L156 168L156 180L180 180L180 168L192 168L192 144L180 144L180 132L204 132L204 144L216 144L216 156L204 156L204 180L216 180L216 192L192 192L192 204L180 204L180 192L156 192L156 204L180 204L180 216L144 216L144 204L132 204L132 192L120 192L120 168L108 168L108 180L96 180L96 192L72 192L72 204L60 204L60 216L36 216L36 204L48 204L48 192L36 192L36 180L72 180L72 168L60 168L60 144L36 144L36 156L24 156L24 132L36 132L36 120L24 120L24 108L12 108L12 96L36 96L36 108L48 108L48 120L60 120L60 108L48 108L48 72L36 72L36 60L48 60L48 48L36 48L36 24L48 24L48 36L60 36L60 48L72 48L72 60L84 60L84 36L60 36L60 24L96 24ZM12 36L24 36L24 48L12 48ZM156 36L156 60L168 60L168 36ZM0 48L12 48L12 60L0 60ZM96 48L96 60L108 60L108 48ZM216 48L228 48L228 60L216 60ZM12 60L24 60L24 72L12 72ZM0 72L12 72L12 96L0 96ZM24 72L36 72L36 84L24 84ZM72 72L72 156L156 156L156 72ZM84 84L144 84L144 144L84 144ZM216 84L228 84L228 132L204 132L204 120L216 120ZM96 96L96 132L132 132L132 96ZM180 96L192 96L192 108L180 108ZM108 108L120 108L120 120L108 120ZM192 108L204 108L204 120L192 120ZM0 120L12 120L12 132L0 132ZM0 156L24 156L24 168L12 168L12 180L0 180ZM24 168L36 168L36 180L24 180ZM132 168L132 180L144 180L144 168ZM216 168L228 168L228 180L216 180ZM0 192L36 192L36 204L0 204ZM96 192L108 192L108 228L96 228ZM120 204L132 204L132 216L120 216ZM204 204L216 204L216 216L204 216ZM60 216L72 216L72 228L60 228ZM192 216L204 216L204 228L192 228ZM216 216L228 216L228 228L216 228Z" fill="#000000" fill-rule="evenodd"/></svg></g></svg>