<?xml version="1.0" encoding="UTF-8" standalone="no"?>
<!-- Created with Inkscape (http://www.inkscape.org/) -->

<svg
   xmlns:dc="http://purl.org/dc/elements/1.1/"
   xmlns:cc="http://creativecommons.org/ns#"
   xmlns:rdf="http://www.w3.org/1999/02/22-rdf-syntax-ns#"
   xmlns:svg="http://www.w3.org/2000/svg"
   xmlns="http://www.w3.org/2000/svg"
   xmlns:sodipodi="http://sodipodi.sourceforge.net/DTD/sodipodi-0.dtd"
   xmlns:inkscape="http://www.inkscape.org/namespaces/inkscape"
   width="462.01053"
   height="522.34985"
   id="svg3015"
   version="1.1"
   inkscape:version="0.48.0 r9654"
   sodipodi:docname="Logo Fairy Tail Fairy Tail.svg">
  <defs
     id="defs3017" />
  <sodipodi:namedview
     id="base"
     pagecolor="#ffffff"
     bordercolor="#666666"
     borderopacity="1.0"
     inkscape:pageopacity="0.0"
     inkscape:pageshadow="2"
     inkscape:zoom="1.4"
     inkscape:cx="261.83034"
     inkscape:cy="236.10144"
     inkscape:document-units="px"
     inkscape:current-layer="layer1"
     showgrid="false"
     fit-margin-top="1"
     fit-margin-right="1"
     fit-margin-bottom="1"
     fit-margin-left="1"
     inkscape:window-width="1920"
     inkscape:window-height="996"
     inkscape:window-x="-8"
     inkscape:window-y="-8"
     inkscape:window-maximized="1" />
  <metadata
     id="metadata3020">
    <rdf:RDF>
      <cc:Work
         rdf:about="">
        <dc:format>image/svg+xml</dc:format>
        <dc:type
           rdf:resource="http://purl.org/dc/dcmitype/StillImage" />
        <dc:title></dc:title>
      </cc:Work>
    </rdf:RDF>
  </metadata>
  <g
     inkscape:label="Calque 1"
     inkscape:groupmode="layer"
     id="layer1"
     transform="translate(-122.5625,-239.9939)">
    <path
       style="fill:#000000;stroke:#000000;stroke-width:1px;stroke-linecap:butt;stroke-linejoin:miter;stroke-opacity:1;display:inline;fill-opacity:1"
       d="m 124.88159,760.04695 73.74113,-128.28933 2.02031,47.98224 c 0.22371,7.42091 2.27421,10.24867 9.59645,5.05077 l 149.50258,-97.9848 c -57.33842,-12.36048 -105.68127,-30.50382 -70.20561,-102.53048 -41.48374,-31.79264 -91.99807,14.3594 -113.13708,45.96194 -24.13424,-51.40342 -34.7227,-161.67094 99.12122,-205.94486 30.82676,-10.18696 63.27874,-1.44732 81.69608,-41.03744 14.57173,46.07498 -10.51855,77.82757 -43.94163,106.57109 37.72829,-18.16682 64.81452,-46.97568 65.65991,-102.0254 32.46374,65.65389 -9.54133,129.54447 -39.39595,155.05841 30.13622,-10.77496 60.58653,-59.3967 68.1853,-111.11678 4.69458,-37.74776 18.14923,-71.30057 70.2056,-86.36804 -11.09926,16.29637 -23.68895,28.68123 -22.22335,62.12438 -0.90375,37.90309 -6.33145,64.83439 -15.21165,100.36986 -8.60724,34.44317 -38.85059,68.51608 -56.50918,80.69998 60.00773,-28.44884 85.71448,-89.7233 87.88327,-169.95816 0.20614,-46.71512 13.24715,-80.92446 65.65991,-76.7716 -19.19518,27.75244 -17.26354,53.81474 -20.70812,80.30713 -7.15922,114.77666 -42.32999,171.42935 -87.3782,207.58635 67.41111,-15.6925 129.60644,-41.66315 133.34014,-182.83761 0.37107,-11.12085 -7.82266,-20.19419 -11.99906,-20.44216 -11.33256,-0.67287 -17.75159,19.26082 -22.8512,33.57414 6.5191,-24.07198 -2.09281,-51.17275 15.65736,-84.85281 3.68345,-7.4146 5.76566,-15.36295 8.08122,-23.23351 -1.97784,21.10779 3.49278,36.47776 11.61675,54.54824 26.99922,57.42321 25.02376,118.13141 2.19414,169.85813 -19.2391,43.59141 -61.23672,74.01619 -95.99039,95.24563 z"
       id="path3002"
       inkscape:connector-curvature="0"
       sodipodi:nodetypes="cccccccccccccccsccccccsccccscc" />
  </g>
</svg>
